<?xml version="1.0" encoding="utf-8"?>
<svg version="1.1" xmlns:xlink="http://www.w3.org/1999/xlink" width="21px" height="28px" xmlns="http://www.w3.org/2000/svg">
  <g transform="matrix(1 0 0 1 -271 -192 )">
    <path d="M 4.443359375 11.328125  C 6.32096354166667 11.7760416666667  8.33984375 12  10.5 12  C 12.66015625 12  14.6790364583333 11.7760416666667  16.556640625 11.328125  C 18.4342447916667 10.8802083333333  19.9153645833333 10.21875  21 9.34375  L 21 12  C 21 12.71875  20.5305989583333 13.3854166666667  19.591796875 14  C 18.6529947916667 14.6145833333333  17.376953125 15.1015625  15.763671875 15.4609375  C 14.150390625 15.8203125  12.3958333333333 16  10.5 16  C 8.60416666666667 16  6.849609375 15.8203125  5.236328125 15.4609375  C 3.623046875 15.1015625  2.34700520833333 14.6145833333333  1.408203125 14  C 0.469401041666667 13.3854166666667  0 12.71875  0 12  L 0 9.34375  C 1.08463541666667 10.21875  2.56575520833333 10.8802083333333  4.443359375 11.328125  Z M 4.443359375 23.328125  C 6.32096354166667 23.7760416666667  8.33984375 24  10.5 24  C 12.66015625 24  14.6790364583333 23.7760416666667  16.556640625 23.328125  C 18.4342447916667 22.8802083333333  19.9153645833333 22.21875  21 21.34375  L 21 24  C 21 24.71875  20.5305989583333 25.3854166666667  19.591796875 26  C 18.6529947916667 26.6145833333333  17.376953125 27.1015625  15.763671875 27.4609375  C 14.150390625 27.8203125  12.3958333333333 28  10.5 28  C 8.60416666666667 28  6.849609375 27.8203125  5.236328125 27.4609375  C 3.623046875 27.1015625  2.34700520833333 26.6145833333333  1.408203125 26  C 0.469401041666667 25.3854166666667  0 24.71875  0 24  L 0 21.34375  C 1.08463541666667 22.21875  2.56575520833333 22.8802083333333  4.443359375 23.328125  Z M 4.443359375 17.328125  C 6.32096354166667 17.7760416666667  8.33984375 18  10.5 18  C 12.66015625 18  14.6790364583333 17.7760416666667  16.556640625 17.328125  C 18.4342447916667 16.8802083333333  19.9153645833333 16.21875  21 15.34375  L 21 18  C 21 18.71875  20.5305989583333 19.3854166666667  19.591796875 20  C 18.6529947916667 20.6145833333333  17.376953125 21.1015625  15.763671875 21.4609375  C 14.150390625 21.8203125  12.3958333333333 22  10.5 22  C 8.60416666666667 22  6.849609375 21.8203125  5.236328125 21.4609375  C 3.623046875 21.1015625  2.34700520833333 20.6145833333333  1.408203125 20  C 0.469401041666667 19.3854166666667  0 18.71875  0 18  L 0 15.34375  C 1.08463541666667 16.21875  2.56575520833333 16.8802083333333  4.443359375 17.328125  Z M 5.236328125 0.539062499999999  C 6.849609375 0.1796875  8.60416666666667 0  10.5 0  C 12.3958333333333 0  14.150390625 0.1796875  15.763671875 0.539062499999999  C 17.376953125 0.898437500000001  18.6529947916667 1.38541666666667  19.591796875 2  C 20.5305989583333 2.61458333333333  21 3.28125  21 4  L 21 6  C 21 6.71875  20.5305989583333 7.38541666666666  19.591796875 8  C 18.6529947916667 8.61458333333333  17.376953125 9.1015625  15.763671875 9.4609375  C 14.150390625 9.8203125  12.3958333333333 10  10.5 10  C 8.60416666666667 10  6.849609375 9.8203125  5.236328125 9.4609375  C 3.623046875 9.1015625  2.34700520833333 8.61458333333333  1.408203125 8  C 0.469401041666667 7.38541666666666  0 6.71875  0 6  L 0 4  C 0 3.28125  0.469401041666667 2.61458333333333  1.408203125 2  C 2.34700520833333 1.38541666666667  3.623046875 0.898437500000001  5.236328125 0.539062499999999  Z " fill-rule="nonzero" fill="#1b93fe" stroke="none" transform="matrix(1 0 0 1 271 192 )" />
  </g>
</svg>