<?xml version="1.0" encoding="utf-8"?>
<svg version="1.1" xmlns:xlink="http://www.w3.org/1999/xlink" width="15px" height="15px" xmlns="http://www.w3.org/2000/svg">
  <g transform="matrix(1 0 0 1 -61 0 )">
    <path d="M 68.5 0  C 72.7 0  76 3.3  76 7.5  C 76 11.7  72.7 15  68.5 15  C 64.3 15  61 11.7  61 7.5  C 61 3.3  64.3 0  68.5 0  Z " fill-rule="nonzero" fill="#ffffff" stroke="none" />
    <path d="M 68.5 0.5  C 72.42 0.5  75.5 3.58  75.5 7.5  C 75.5 11.42  72.42 14.5  68.5 14.5  C 64.58 14.5  61.5 11.42  61.5 7.5  C 61.5 3.58  64.58 0.5  68.5 0.5  Z " stroke-width="1" stroke="#fb1919" fill="none" />
  </g>
</svg>